<svg id="Ebene_1" data-name="Ebene 1" xmlns="http://www.w3.org/2000/svg" viewBox="0 0 88.41 85.43"><defs><style>.cls-1,.cls-2,.cls-3{fill:#fff;}.cls-1,.cls-2,.cls-3,.cls-4{stroke:#1d1d1b;stroke-miterlimit:10;}.cls-1{stroke-width:3px;}.cls-3{stroke-width:2px;}.cls-4{fill:none;}</style></defs><rect class="cls-1" x="1.5" y="1.5" width="74.06" height="74.06"/><path class="cls-2" d="M89.67,126.41" transform="translate(-6.39 -9.11)"/><circle class="cls-3" cx="29.09" cy="28.68" r="8.38"/><path class="cls-3" d="M35.32,47.62c9.09.07,10.18,12.53,10.18,12.53l2.2,23.3H35.21" transform="translate(-6.39 -9.11)"/><path class="cls-3" d="M35.47,47.59c-9.09.06-10.18,12.52-10.18,12.52l-2.21,23.3H35.57" transform="translate(-6.39 -9.11)"/><circle class="cls-3" cx="17.78" cy="37.47" r="8.38"/><path class="cls-3" d="M24,56.41c9.09.07,10.18,12.53,10.18,12.53l2.2,23.3H23.9" transform="translate(-6.39 -9.11)"/><path class="cls-3" d="M24.15,56.38C15.06,56.44,14,68.9,14,68.9L11.77,92.2H24.26" transform="translate(-6.39 -9.11)"/><circle class="cls-3" cx="37.04" cy="38.77" r="8.38"/><path class="cls-3" d="M43.27,57.71c9.09.07,10.18,12.53,10.18,12.53l2.2,23.3H43.16" transform="translate(-6.39 -9.11)"/><path class="cls-3" d="M43.41,57.68c-9.09.06-10.17,12.52-10.17,12.52L31,93.5H43.52" transform="translate(-6.39 -9.11)"/><rect class="cls-3" x="50.72" y="4.71" width="36.69" height="58.47"/><rect class="cls-2" x="70.9" y="8.61" width="12.84" height="11.69"/><rect class="cls-2" x="70.9" y="23.05" width="12.84" height="11.69"/><rect class="cls-2" x="70.9" y="37.5" width="12.84" height="11.69"/><line class="cls-4" x1="54.62" y1="11.82" x2="67.23" y2="11.82"/><line class="cls-4" x1="54.74" y1="15.83" x2="67.35" y2="15.83"/><line class="cls-4" x1="54.62" y1="26.32" x2="67.23" y2="26.32"/><line class="cls-4" x1="54.74" y1="30.33" x2="67.35" y2="30.33"/><line class="cls-4" x1="54.62" y1="40.32" x2="67.23" y2="40.32"/><line class="cls-4" x1="54.74" y1="44.33" x2="67.35" y2="44.33"/><line class="cls-4" x1="54.62" y1="53.07" x2="83.25" y2="53.07"/><line class="cls-4" x1="54.88" y1="57.08" x2="83.51" y2="57.08"/><line class="cls-4" x1="73.39" y1="15.39" x2="75.22" y2="17.68"/><line class="cls-4" x1="80.91" y1="10.98" x2="74.72" y2="17.63"/><line class="cls-4" x1="74.08" y1="29.84" x2="75.91" y2="32.13"/><line class="cls-4" x1="81.6" y1="25.42" x2="75.41" y2="32.07"/><line class="cls-4" x1="74" y1="44.51" x2="75.83" y2="46.8"/><line class="cls-4" x1="81.53" y1="40.1" x2="75.33" y2="46.75"/></svg>